<?xml version="1.0" encoding="UTF-8" standalone="no"?>
<!-- Created with Inkscape (http://www.inkscape.org/) -->

<svg
   version="1.1"
   id="svg3984"
   xml:space="preserve"
   width="682.66669"
   height="682.66669"
   viewBox="0 0 682.66669 682.66669"
   xmlns="http://www.w3.org/2000/svg"
   xmlns:svg="http://www.w3.org/2000/svg"><defs
     id="defs3988"><clipPath
       clipPathUnits="userSpaceOnUse"
       id="clipPath3998"><path
         d="M 0,512 H 512 V 0 H 0 Z"
         id="path3996" /></clipPath></defs><g
     id="g3990"
     transform="matrix(1.3333333,0,0,-1.3333333,0,682.66667)"><g
       id="g3992"><g
         id="g3994"
         clip-path="url(#clipPath3998)"><g
           id="g4000"
           transform="translate(292.2134,292.2793)"><path
             d="m 0,0 -42.427,127.279 63.64,63.64 L 63.64,63.64 Z"
             style="fill:none;stroke:#000000;stroke-width:30;stroke-linecap:round;stroke-linejoin:round;stroke-miterlimit:10;stroke-dasharray:none;stroke-opacity:1"
             id="path4002" /></g><g
           id="g4004"
           transform="translate(419.4922,249.853)"><path
             d="m 0,0 -127.279,42.426 63.64,63.64 L 63.64,63.639 Z"
             style="fill:none;stroke:#000000;stroke-width:30;stroke-linecap:round;stroke-linejoin:round;stroke-miterlimit:10;stroke-dasharray:none;stroke-opacity:1"
             id="path4006" /></g><g
           id="g4008"
           transform="translate(355.853,271.0659)"><path
             d="m 0,0 -47.914,-151.442 c -7.024,-22.199 -19.337,-43.088 -36.939,-60.69 -58.579,-58.578 -153.553,-58.578 -212.132,0 -58.578,58.579 -58.578,153.553 0,212.132 17.602,17.602 38.491,29.915 60.69,36.939 l 151.442,47.914"
             style="fill:none;stroke:#000000;stroke-width:30;stroke-linecap:round;stroke-linejoin:round;stroke-miterlimit:10;stroke-dasharray:none;stroke-opacity:1"
             id="path4010" /></g><g
           id="g4012"
           transform="translate(146.896,76.8521)"><path
             d="m 0,0 12.023,58.754 c 8.985,-1.83 18.646,0.486 25.92,6.947 L 77.751,20.808 C 55.962,1.461 26.96,-5.475 0,0 Z"
             style="fill:none;stroke:#000000;stroke-width:30;stroke-linecap:round;stroke-linejoin:round;stroke-miterlimit:10;stroke-dasharray:none;stroke-opacity:1"
             id="path4014" /></g><g
           id="g4016"
           transform="translate(76.7861,146.9619)"><path
             d="M 0,0 C -5.475,26.961 1.461,55.963 20.808,77.751 L 65.701,37.943 C 59.239,30.669 56.924,21.008 58.754,12.023 Z"
             style="fill:none;stroke:#000000;stroke-width:30;stroke-linecap:round;stroke-linejoin:round;stroke-miterlimit:10;stroke-dasharray:none;stroke-opacity:1"
             id="path4018" /></g><g
           id="g4020"
           transform="translate(174.4229,193.4668)"><path
             d="M 0,0 18.969,56.907 C 31.838,52.641 43.928,45.396 54.151,35.173 64.374,24.95 71.618,12.86 75.885,-0.009 L 18.978,-18.978 c -1.425,4.286 -3.843,8.313 -7.254,11.725 C 8.313,-3.843 4.286,-1.425 0,0 Z"
             style="fill:none;stroke:#000000;stroke-width:30;stroke-linecap:round;stroke-linejoin:round;stroke-miterlimit:10;stroke-dasharray:none;stroke-opacity:1"
             id="path4022" /></g><g
           id="g4024"
           transform="translate(186.147,143.7866)"><path
             d="m 0,0 c -11.715,-11.715 -30.71,-11.715 -42.426,0 -11.716,11.716 -11.716,30.711 0,42.427 11.716,11.715 30.711,11.715 42.426,0 C 11.716,30.711 11.716,11.716 0,0 Z"
             style="fill:none;stroke:#000000;stroke-width:30;stroke-linecap:round;stroke-linejoin:round;stroke-miterlimit:10;stroke-dasharray:none;stroke-opacity:1"
             id="path4026" /></g><g
           id="g4028"
           transform="translate(497,497)"><path
             d="M 0,0 -98.721,-98.655"
             style="fill:none;stroke:#000000;stroke-width:30;stroke-linecap:round;stroke-linejoin:round;stroke-miterlimit:10;stroke-dasharray:none;stroke-opacity:1"
             id="path4030" /></g><g
           id="g4032"
           transform="translate(398.2793,483.1982)"><path
             d="M 0,0 -21.213,-21.213"
             style="fill:none;stroke:#000000;stroke-width:30;stroke-linecap:round;stroke-linejoin:round;stroke-miterlimit:10;stroke-dasharray:none;stroke-opacity:1"
             id="path4034" /></g><g
           id="g4036"
           transform="translate(483.1318,398.3452)"><path
             d="M 0,0 -21.213,-21.213"
             style="fill:none;stroke:#000000;stroke-width:30;stroke-linecap:round;stroke-linejoin:round;stroke-miterlimit:10;stroke-dasharray:none;stroke-opacity:1"
             id="path4038" /></g></g></g></g></svg>
