<?xml version="1.0" encoding="iso-8859-1"?>
<!-- Uploaded to: SVG Repo, www.svgrepo.com, Generator: SVG Repo Mixer Tools -->
<!DOCTYPE svg PUBLIC "-//W3C//DTD SVG 1.1//EN" "http://www.w3.org/Graphics/SVG/1.1/DTD/svg11.dtd">
<svg fill="#000000" height="800px" width="800px" version="1.1" id="Capa_1" xmlns="http://www.w3.org/2000/svg" xmlns:xlink="http://www.w3.org/1999/xlink" 
	 viewBox="0 0 460.517 460.517" xml:space="preserve">
<g>
	<path d="M297.147,214.194c-51.675,0-93.716,42.041-93.716,93.716s42.041,93.716,93.716,93.716s93.716-42.041,93.716-93.716
		S348.822,214.194,297.147,214.194z M373.843,333.021c-8.057-11.742-18.934-17.939-33.229-18.894l-22.311-3.948
		c0.079-0.746,0.125-1.501,0.125-2.268s-0.045-1.522-0.125-2.268l22.311-3.948c14.296-0.955,25.172-7.152,33.229-18.894
		c2.596,7.909,4.02,16.344,4.02,25.11C377.863,316.676,376.439,325.112,373.843,333.021z M359.012,348.883
		c-10.746-0.645-18.183-4.939-24.114-13.922l-8.464-10.142l12.272,2.172l0.743,0.088c10.746,0.645,18.182,4.939,24.114,13.922
		c2.257,3.418,2.462,5.723,2.049,6.438C365.198,348.154,363.099,349.128,359.012,348.883z M301.698,381.974
		c-1.832,3.663-3.725,4.993-4.551,4.993s-2.719-1.33-4.551-4.993l0,0c-4.814-9.628-4.814-18.216,0-27.844l4.551-12.401l4.255,11.714
		l0.296,0.688C306.512,363.757,306.512,372.345,301.698,381.974z M228.682,347.438c-0.413-0.715-0.208-3.02,2.049-6.438v0
		c5.932-8.983,13.368-13.277,24.114-13.922l13.016-2.259l-8.017,9.542l-0.448,0.6c-5.931,8.983-13.368,13.277-24.114,13.922
		C231.194,349.128,229.095,348.153,228.682,347.438z M253.68,314.126c-14.296,0.955-25.172,7.152-33.229,18.895
		c-2.596-7.909-4.02-16.344-4.02-25.11s1.424-17.202,4.02-25.11c8.057,11.742,18.934,17.939,33.229,18.894l22.311,3.948
		c-0.079,0.746-0.125,1.501-0.125,2.268s0.045,1.522,0.125,2.268L253.68,314.126z M235.282,266.937
		c10.745,0.645,18.182,4.939,24.114,13.922l8.464,10.142l-12.272-2.172l-0.743-0.088c-10.746-0.645-18.182-4.939-24.114-13.922
		c-2.257-3.418-2.462-5.723-2.049-6.438c0.369-0.638,2.079-1.483,5.349-1.483C234.425,266.899,234.842,266.911,235.282,266.937
		L235.282,266.937z M292.596,233.847c1.832-3.664,3.725-4.993,4.551-4.993s2.719,1.33,4.551,4.993v0
		c4.814,9.628,4.814,18.216,0,27.844l-4.551,12.401l-4.255-11.714l-0.295-0.688C287.782,252.063,287.782,243.476,292.596,233.847z
		 M297.147,316.191c-4.566,0-8.281-3.715-8.281-8.281c0-4.566,3.715-8.281,8.281-8.281s8.281,3.715,8.281,8.281
		C305.428,312.476,301.713,316.191,297.147,316.191z M360.263,266.899c3.27,0,4.98,0.845,5.349,1.483
		c0.413,0.715,0.208,3.02-2.049,6.438c-5.932,8.983-13.368,13.277-24.114,13.922l-13.016,2.26l8.017-9.542l0.448-0.6
		c5.932-8.983,13.369-13.277,24.114-13.922C359.452,266.911,359.869,266.899,360.263,266.899z M357.2,254.048
		c-14.177,1.115-24.969,7.436-32.936,19.327l-14.591,17.368c-1.216-0.89-2.523-1.659-3.915-2.278l7.74-21.306
		c6.324-12.864,6.393-25.387,0.244-38.242C330.829,232.503,345.942,241.509,357.2,254.048z M280.553,228.918
		c-6.149,12.854-6.08,25.378,0.244,38.242l7.74,21.306c-1.392,0.619-2.698,1.388-3.915,2.278l-14.592-17.368
		c-7.967-11.891-18.76-18.212-32.936-19.327C248.352,241.509,263.465,232.503,280.553,228.918z M237.094,361.772
		c14.177-1.115,24.969-7.436,32.936-19.327l14.592-17.368c1.216,0.89,2.523,1.659,3.915,2.278l-7.74,21.307
		c-6.324,12.864-6.393,25.387-0.244,38.242C263.465,383.318,248.352,374.311,237.094,361.772z M313.74,386.903
		c6.149-12.854,6.08-25.378-0.243-38.242l-7.74-21.307c1.392-0.619,2.699-1.388,3.915-2.278l14.591,17.368
		c7.967,11.891,18.759,18.212,32.936,19.327C345.942,374.311,330.829,383.318,313.74,386.903z"/>
	<path d="M458.178,281.604c-18.563-15.466-31.769-35.954-38.189-59.248s-5.576-47.656,2.441-70.451l0.57-1.62
		c0.699-1.989,0.391-4.194-0.828-5.914s-3.196-2.743-5.304-2.743h-26.799c22.526-13.825,37.587-38.681,37.587-66.994v-9.502
		c0-3.59-2.91-6.5-6.5-6.5h-9.513c-17.097,0-33.729,5.679-47.255,15.85c-0.96-5.209-2.434-10.326-4.451-15.301l-3.569-8.815
		c-0.647-1.598-1.903-2.874-3.491-3.546c-1.588-0.673-3.379-0.686-4.976-0.038L339.1,50.35
		c-11.016,4.46-20.716,11.239-28.577,19.876c-3.923-9.285-9.617-17.779-16.827-24.988l-6.721-6.721
		c-1.219-1.219-2.872-1.904-4.596-1.904c-1.724,0-3.377,0.685-4.596,1.904l-6.721,6.721c-7.211,7.211-12.903,15.706-16.821,24.992
		c-7.863-8.64-17.565-15.419-28.58-19.879l-8.804-3.569c-1.598-0.647-3.388-0.634-4.976,0.038c-1.588,0.672-2.844,1.948-3.491,3.546
		l-3.567,8.812c-2.018,4.978-3.493,10.096-4.453,15.305c-13.526-10.171-30.157-15.85-47.254-15.85h-9.513c-3.59,0-6.5,2.91-6.5,6.5
		v9.502c0,28.312,15.06,53.169,37.587,66.994h-29.053c-2.507,0-4.791,1.442-5.869,3.706c-1.078,2.264-0.758,4.946,0.823,6.892
		c20.127,24.786,29.501,55.95,26.397,87.75l-3.926,40.123H6.5c-3.59,0-6.5,2.91-6.5,6.5s2.91,6.5,6.5,6.5h175.594
		c-0.621,4.851-0.942,9.795-0.942,14.812c0,63.959,52.035,115.994,115.995,115.994S413.142,371.87,413.142,307.91
		c0-5.017-0.321-9.961-0.942-14.812h41.817c2.737,0,5.18-1.714,6.112-4.288C461.061,286.237,460.28,283.356,458.178,281.604z
		 M365.659,90.498c12.323-12.176,28.55-18.865,45.984-18.865h3.013v3.002c0,36.145-29.406,65.551-65.55,65.551h-2.679
		C358.491,126.31,365.24,108.869,365.659,90.498z M343.981,62.398l2.777-1.126l1.13,2.791c3.092,7.627,4.708,15.637,4.804,23.811
		c0.203,16.811-6.298,33.484-17.845,45.756c-2.754,2.941-5.819,5.612-9.1,7.999h-20.521c10.249-16.788,13.805-37.066,9.903-56.437
		C322.361,74.986,332.285,67.134,343.981,62.398z M280.254,54.43l2.125-2.125l2.125,2.125c8.545,8.545,14.552,19.239,17.371,30.926
		c4.227,17.533,1.026,36.19-8.796,51.209c-1.116,1.722-2.347,3.415-3.662,5.063h-14.073c-1.255-1.572-2.441-3.192-3.532-4.849
		c-0.047-0.079-0.096-0.157-0.146-0.235c-9.799-14.999-12.996-33.652-8.769-51.182C265.705,73.673,271.708,62.977,280.254,54.43z
		 M216.872,64.06L218,61.272l2.78,1.127c11.697,4.736,21.624,12.592,28.861,22.803c-3.901,19.362-0.349,39.636,9.893,56.426h-20.522
		c-3.281-2.385-6.347-5.059-9.111-8.01c-11.537-12.261-18.037-28.935-17.834-45.749C212.161,79.701,213.777,71.691,216.872,64.06z
		 M150.104,74.635v-3.002h3.013c17.434,0,33.661,6.689,45.984,18.865c0.418,18.376,7.17,35.819,19.231,49.687h-2.678
		C179.509,140.185,150.104,110.779,150.104,74.635z M297.147,410.905c-56.792,0-102.995-46.203-102.995-102.994
		c0-56.792,46.203-102.995,102.995-102.995s102.995,46.203,102.995,102.995C400.142,364.702,353.938,410.905,297.147,410.905z
		 M409.763,280.098c-12.492-50.571-58.241-88.183-112.616-88.183s-100.123,37.611-112.616,88.183h-8.406l3.802-38.858
		c3.01-30.83-4.571-61.124-21.457-86.612h249.438c-6.749,23.246-6.924,47.702-0.452,71.182c5.636,20.448,15.982,38.95,30.254,54.288
		H409.763z"/>
	<path d="M387.317,161.098h-206c-3.59,0-6.5,2.91-6.5,6.5s2.91,6.5,6.5,6.5h206c3.59,0,6.5-2.91,6.5-6.5
		S390.907,161.098,387.317,161.098z"/>
</g>
</svg>