<svg id="king-statue" enable-background="new 0 0 300 300" height="512" viewBox="0 0 300 300" width="512" xmlns="http://www.w3.org/2000/svg"><g><path d="m55.792 198.631c2.362 0 4.277-1.915 4.277-4.277s-1.915-4.276-4.277-4.276-4.276 1.915-4.276 4.276 1.914 4.277 4.276 4.277z"/><path d="m245.724 155.321c-2.362 0-4.277 1.915-4.277 4.277s1.915 4.276 4.277 4.276 4.276-1.915 4.276-4.276-1.915-4.277-4.276-4.277z"/><path d="m250 98c-6.617 0-12 5.383-12 12s5.383 12 12 12 12-5.383 12-12-5.383-12-12-12zm0 16c-2.205 0-4-1.795-4-4s1.795-4 4-4 4 1.795 4 4-1.795 4-4 4z"/><path d="m247.031 183.391c-1.562-1.562-4.094-1.562-5.656 0l-3.172 3.172-3.172-3.172c-1.562-1.562-4.094-1.562-5.656 0s-1.562 4.094 0 5.656l3.172 3.172-3.172 3.172c-1.562 1.562-1.562 4.094 0 5.656.781.781 1.805 1.172 2.828 1.172s2.047-.391 2.828-1.172l3.172-3.172 3.172 3.172c.781.781 1.805 1.172 2.828 1.172s2.047-.391 2.828-1.172c1.562-1.562 1.562-4.094 0-5.656l-3.172-3.172 3.172-3.172c1.563-1.563 1.563-4.094 0-5.656z"/><path d="m238 266h-24v-20c0-2.209-1.791-4-4-4h-8v-8c0-2.209-1.791-4-4-4h-8v-32c.762 0 1.518-.217 2.176-.645 1.139-.736 1.824-2 1.824-3.355v-26.344l14.828-14.828c.75-.75 1.172-1.768 1.172-2.828v-64.734c0-8.418-6.848-15.266-15.266-15.266h-12.734v-36c0-1.617-.975-3.076-2.469-3.695-1.502-.619-3.217-.279-4.359.867l-4.074 4.074-3.512-7.033c-.676-1.356-2.061-2.213-3.576-2.213h-.002c-1.514 0-2.898.855-3.576 2.209l-3.525 7.041-4.078-4.078c-1.146-1.146-2.865-1.486-4.359-.867s-2.47 2.078-2.47 3.695v36h-44v-4c0-2.209-1.791-4-4-4h-12c-2.209 0-4 1.791-4 4v4h-8c-2.209 0-4 1.791-4 4v16c0 2.209 1.791 4 4 4h8.003l.001 8h-8.004c-2.209 0-4 1.791-4 4s1.791 4 4 4h7.823l-3.819 87.826c-.018.422.029.846.145 1.252l8.653 30.922h-8.802c-2.209 0-4 1.791-4 4v8h-4c-2.209 0-4 1.791-4 4v20h-24c-2.209 0-4 1.791-4 4s1.791 4 4 4h196c2.209 0 4-1.791 4-4s-1.791-4-4-4zm-64-36v-38.766l8 3.573v35.193zm12-86.697-44-23.692v-6.915l44 23.692zm0 9.086v13.611 21.832l-44-19.652v-39.483zm-32 29.912v47.699h-8v-51.272zm8 3.573 4 1.787v42.339h-4zm-8-123.874h20v10.496l-10 11.43-10-11.43zm1.172-17.172c.906.908 2.186 1.307 3.469 1.121 1.268-.207 2.361-1.01 2.936-2.158l2.428-4.848 2.418 4.844c.574 1.15 1.666 1.955 2.936 2.16 1.283.211 2.562-.209 3.471-1.119l1.17-1.172v10.344h-20v-10.344zm-6.987 33.172 12.805 14.635c.76.867 1.856 1.365 3.01 1.365s2.25-.498 3.01-1.365l12.805-14.635h14.919c4.006 0 7.266 3.26 7.266 7.266v63.078l-8 8v-58.344c0-2.209-1.791-4-4-4s-4 1.791-4 4v29.303l-44-23.692v-9.611c0-2.068-1.578-3.797-3.639-3.984l-36.361-3.306v-8.71zm-70.185 8v-8h4.001l.001 8zm12-16h4v32h-4zm-.174 40h4.344l3.806 87.545-5.932 21.51-6.021-21.518zm16.029 89.062c.111-.402.158-.818.141-1.236l-3.818-87.826h7.822c2.209 0 4-1.791 4-4s-1.791-4-4-4h-8v-7.255l32 2.907v73.121c0 1.578.928 3.008 2.369 3.652l1.631.729v54.846h-40.675zm-23.855 38.938h10.074.008 101.918v4h-112zm-8 12h132v16h-132z"/></g></svg>