<?xml version="1.0" encoding="iso-8859-1"?>
<!-- Uploaded to: SVG Repo, www.svgrepo.com, Generator: SVG Repo Mixer Tools -->
<!DOCTYPE svg PUBLIC "-//W3C//DTD SVG 1.1//EN" "http://www.w3.org/Graphics/SVG/1.1/DTD/svg11.dtd">
<svg fill="#000000" version="1.1" id="Capa_1" xmlns="http://www.w3.org/2000/svg" xmlns:xlink="http://www.w3.org/1999/xlink" 
	 width="800px" height="800px" viewBox="0 0 477.523 477.523"
	 xml:space="preserve">
<g>
	<path d="M12.5,184.968h18.875v253.251c0,6.903,5.597,12.5,12.5,12.5h68.98c6.903,0,12.5-5.597,12.5-12.5V289.214h45.261v149.005
		c0,6.903,5.597,12.5,12.5,12.5h111.292c6.902,0,12.5-5.597,12.5-12.5V289.214h45.262v149.005c0,6.903,5.596,12.5,12.5,12.5h68.979
		c6.904,0,12.5-5.597,12.5-12.5V184.968h18.875c6.904,0,12.5-5.597,12.5-12.5V39.305c0-6.903-5.596-12.5-12.5-12.5h-48.811
		c-6.904,0-12.5,5.597-12.5,12.5v50.536h-22.184V39.305c0-6.903-5.598-12.5-12.5-12.5h-55.389c-6.904,0-12.5,5.597-12.5,12.5v50.536
		h-22.184V39.305c0-6.903-5.597-12.5-12.5-12.5h-55.39c-6.903,0-12.5,5.597-12.5,12.5v50.536h-22.183V39.305
		c0-6.903-5.597-12.5-12.5-12.5h-55.389c-6.903,0-12.5,5.597-12.5,12.5v50.536H73.811V39.305c0-6.903-5.597-12.5-12.5-12.5H12.5
		c-6.904,0-12.5,5.597-12.5,12.5v133.163C0,179.371,5.596,184.968,12.5,184.968z M25,51.805h23.811v50.536
		c0,6.903,5.596,12.5,12.5,12.5h47.184c6.904,0,12.5-5.597,12.5-12.5V51.805h30.389v50.536c0,6.903,5.597,12.5,12.5,12.5h47.183
		c6.903,0,12.5-5.597,12.5-12.5V51.805h30.39v50.536c0,6.903,5.598,12.5,12.5,12.5h47.184c6.902,0,12.5-5.597,12.5-12.5V51.805
		h30.389v50.536c0,6.903,5.596,12.5,12.5,12.5h47.184c6.902,0,12.5-5.597,12.5-12.5V51.805h23.811v108.163h-18.875
		c-6.902,0-12.5,5.596-12.5,12.5v253.251H377.17V276.714c0-6.904-5.598-12.5-12.5-12.5h-70.262c-6.904,0-12.501,5.596-12.501,12.5
		v149.005h-86.291V276.714c0-6.904-5.597-12.5-12.5-12.5h-70.261c-6.903,0-12.5,5.596-12.5,12.5v149.005h-43.98V172.468
		c0-6.904-5.597-12.5-12.5-12.5H25V51.805z"/>
</g>
</svg>