<svg id="_x33_0" enable-background="new 0 0 46 62.08" height="512" viewBox="0 0 46 62.08" width="512" xmlns="http://www.w3.org/2000/svg"><g><path d="m44.399 15.2c-2.049 1.538-4.459 2.466-6.998 2.721-.328-.534-.773-.983-1.306-1.313l.75-11.25c.724-.561 1.155-1.42 1.155-2.358 0-1.654-1.346-3-3-3s-3 1.346-3 3c0 .284.041.565.124.839l-1.255 2.929c-.321.749-1.055 1.232-1.869 1.232s-1.548-.483-1.869-1.231l-1.255-2.93c.083-.274.124-.555.124-.839 0-1.654-1.346-3-3-3s-3 1.346-3 3c0 .284.041.565.124.839l-1.255 2.929c-.321.749-1.055 1.232-1.869 1.232s-1.548-.483-1.869-1.231l-1.255-2.93c.083-.274.124-.555.124-.839 0-1.654-1.346-3-3-3s-3 1.346-3 3c0 .938.431 1.797 1.155 2.358l.75 11.25c-.533.33-.978.779-1.306 1.313-2.54-.255-4.949-1.183-6.998-2.721l-1.601-1.2v24.573c0 8.564 5.122 16.193 13.049 19.437l9.951 4.07 9.951-4.07c7.927-3.243 13.049-10.872 13.049-19.437v-24.573zm-32.399 2.8c.034 0 .066.01.1.012-.064.319-.1.65-.1.988 0 1.038.319 2.002.862 2.802-.266.128-.559.198-.862.198-1.103 0-2-.897-2-2s.897-2 2-2zm2 1c0-1.654 1.346-3 3-3 .607 0 1.188.192 1.681.527-.421.732-.681 1.569-.681 2.473s.26 1.741.681 2.473c-.493.335-1.074.527-1.681.527-1.654 0-3-1.346-3-3zm12 0c0 1.654-1.346 3-3 3s-3-1.346-3-3 1.346-3 3-3 3 1.346 3 3zm-6 3.997c.005-.004.009-.008.014-.011.581.437 1.249.763 1.986.913v23.726c-1.394-1.997-2.935-3.891-4.623-5.648 1.698-2.021 2.623-4.549 2.623-7.219zm4 .902c.737-.15 1.405-.476 1.986-.913.005.004.009.008.014.011v11.761c0 2.67.925 5.198 2.623 7.219-1.688 1.758-3.229 3.652-4.623 5.648zm3.319-2.426c.421-.732.681-1.569.681-2.473s-.26-1.741-.681-2.473c.493-.335 1.074-.527 1.681-.527 1.654 0 3 1.346 3 3s-1.346 3-3 3c-.607 0-1.188-.192-1.681-.527zm5.819.329c.543-.8.862-1.764.862-2.802 0-.338-.036-.669-.1-.988.034-.002.066-.012.1-.012 1.103 0 2 .897 2 2s-.897 2-2 2c-.303 0-.596-.07-.862-.198zm-22.06-17.656-.516-.255c-.346-.171-.562-.513-.562-.891 0-.552.448-1 1-1s1 .448 1 1c0 .142-.035.285-.104.428l-.197.409 1.594 3.72c.637 1.484 2.092 2.443 3.707 2.443s3.07-.959 3.707-2.444l1.594-3.719-.197-.409c-.069-.143-.104-.286-.104-.428 0-.552.448-1 1-1s1 .448 1 1c0 .142-.035.285-.104.428l-.197.409 1.594 3.72c.637 1.484 2.092 2.443 3.707 2.443s3.07-.959 3.707-2.444l1.594-3.719-.197-.409c-.069-.143-.104-.286-.104-.428 0-.552.448-1 1-1s1 .448 1 1c0 .378-.216.72-.563.891l-.516.255-.791 11.867c-.044-.001-.086-.013-.13-.013-.315 0-.629.038-.934.111-.907-1.273-2.387-2.111-4.066-2.111-1.097 0-2.153.363-3.014 1.014-.836-.628-1.862-1.014-2.986-1.014s-2.15.386-2.986 1.014c-.861-.651-1.917-1.014-3.014-1.014-1.679 0-3.159.838-4.066 2.111-.305-.073-.619-.111-.934-.111-.044 0-.086.012-.13.013zm32.922 34.427c0 7.748-4.635 14.651-11.807 17.585l-9.193 3.762-9.193-3.762c-7.172-2.933-11.807-9.837-11.807-17.585v-20.716c.643.372 1.315.682 2 .959v15.184h2v-14.531c.661.17 1.333.295 2.015.38-.002.052-.015.099-.015.151 0 2.012 1.497 3.664 3.432 3.943-2.086 1.649-3.432 4.197-3.432 7.057 0 2.757 2.243 5 5 5 1.654 0 3-1.346 3-3s-1.346-3-3-3h-1v2h1c.552 0 1 .448 1 1s-.448 1-1 1c-1.654 0-3-1.346-3-3 0-3.859 3.141-7 7-7 .339 0 .673-.037 1-.104v10.862c0 2.469-.961 4.789-2.707 6.535l-.707.707.707.707c2.597 2.597 4.871 5.51 6.76 8.659l.947 1.574.947-1.575c1.889-3.148 4.163-6.062 6.76-8.658l.707-.707-.707-.707c-1.746-1.746-2.707-4.066-2.707-6.535v-10.862c.327.067.661.104 1 .104 3.859 0 7 3.141 7 7 0 1.654-1.346 3-3 3-.552 0-1-.448-1-1s.448-1 1-1h1v-2h-1c-1.654 0-3 1.346-3 3s1.346 3 3 3c2.757 0 5-2.243 5-5 0-2.86-1.346-5.408-3.432-7.057 1.935-.279 3.432-1.931 3.432-3.943 0-.052-.013-.099-.015-.151.682-.085 1.354-.21 2.015-.38v14.531h2v-15.183c.685-.277 1.357-.587 2-.959z"/><path d="m40 38.573c0 6.117-3.659 11.566-9.321 13.883l-7.679 3.142-7.679-3.142c-5.662-2.316-9.321-7.766-9.321-13.883v-2.573h-2v2.573c0 6.934 4.146 13.109 10.563 15.734l8.437 3.451 8.437-3.45c6.417-2.625 10.563-8.801 10.563-15.735v-2.573h-2z"/></g></svg>