<?xml version="1.0" encoding="iso-8859-1"?>
<!-- Uploaded to: SVG Repo, www.svgrepo.com, Generator: SVG Repo Mixer Tools -->
<svg fill="#000000" height="800px" width="800px" version="1.1" id="Layer_1" xmlns="http://www.w3.org/2000/svg" xmlns:xlink="http://www.w3.org/1999/xlink" 
	 viewBox="0 0 512.001 512.001" xml:space="preserve">
<g>
	<g>
		<path fill="gold" d="M420.557,246.851c-4.328-40.361-23.364-77.64-53.598-104.973c-17.869-16.153-38.818-28.043-61.377-35.117
			c8.002-9.346,17.881-18.503,29.519-24.876c11.936-6.535,17.366-21.076,12.635-33.823l-11.15-30.048
			c-6.106-16.461-25.702-22.995-40.439-13.875c-20.874,12.918-55.856,42.17-66.895,97.203
			c-31.218,5.092-60.439,19.046-84.211,40.537c-30.234,27.333-49.27,64.613-53.598,104.974c-0.945,8.812,1.91,17.65,7.83,24.248
			c5.935,6.613,14.423,10.406,23.289,10.406h1.479v71.498c0,48.366,26.422,92.79,68.955,115.935
			c18.604,10.125,36.265,23.299,51.076,38.102c3.154,3.173,7.449,4.96,11.929,4.96c4.474,0,8.762-1.784,11.917-4.95
			c15.024-15.02,32.213-27.843,51.085-38.113c42.534-23.146,68.956-67.569,68.956-115.935v-71.498h1.479
			c8.875,0,17.365-3.788,23.293-10.394C418.651,264.517,421.503,255.674,420.557,246.851z M307.693,36.849l6.733,18.141
			c-19.979,12.146-35.255,29.588-45.834,44.662c-0.181-0.013-3.916-0.25-4.323-0.27C273.218,66.938,292.888,47.444,307.693,36.849z
			 M302.923,439.39c-16.893,9.193-32.621,20.173-46.923,32.746c-14.302-12.571-30.029-23.552-46.924-32.746
			c-31.702-17.251-51.395-50.353-51.395-86.387v-71.498h196.636v71.499h0.001C354.319,389.037,334.625,422.139,302.923,439.39z
			 M125.192,247.865c8.56-67.516,66.883-117.118,134.996-114.975c0.312,0.01,0.623,0.02,0.935,0.033
			c64.841,2.496,117.611,51.257,125.686,114.942C377.728,247.865,134.251,247.865,125.192,247.865z"/>
	</g>
</g>
</svg>