<?xml version="1.0" encoding="UTF-8" standalone="no"?>
<!-- Created with Inkscape (http://www.inkscape.org/) -->

<svg
   width="128"
   height="128"
   viewBox="0 0 33.866666 33.866666"
   version="1.1"
   id="svg5"
   xml:space="preserve"
   inkscape:version="1.2.1 (9c6d41e410, 2022-07-14)"
   sodipodi:docname="greatperson.svg"
   inkscape:export-filename="greatperson.png"
   inkscape:export-xdpi="96"
   inkscape:export-ydpi="96"
   xmlns:inkscape="http://www.inkscape.org/namespaces/inkscape"
   xmlns:sodipodi="http://sodipodi.sourceforge.net/DTD/sodipodi-0.dtd"
   xmlns="http://www.w3.org/2000/svg"
   xmlns:svg="http://www.w3.org/2000/svg"><sodipodi:namedview
     id="namedview7"
     pagecolor="#ffffff"
     bordercolor="#000000"
     borderopacity="0.25"
     inkscape:showpageshadow="2"
     inkscape:pageopacity="0.0"
     inkscape:pagecheckerboard="0"
     inkscape:deskcolor="#d1d1d1"
     inkscape:document-units="mm"
     showgrid="false"
     inkscape:zoom="2.1089995"
     inkscape:cx="168.56334"
     inkscape:cy="-0.47415847"
     inkscape:window-width="1920"
     inkscape:window-height="1017"
     inkscape:window-x="-8"
     inkscape:window-y="-8"
     inkscape:window-maximized="1"
     inkscape:current-layer="layer1" /><defs
     id="defs2" /><g
     inkscape:label="Layer 1"
     inkscape:groupmode="layer"
     id="layer1"><path
       style="fill:#000000;stroke-width:0.0593738"
       d="m 13.983137,30.202421 c 0,-2.093685 -0.186384,-4.00085 -0.418392,-4.281182 -0.100524,-0.121459 -0.443822,-0.106823 -1.425111,0.06075 -1.140502,0.194757 -1.764648,0.236863 -2.3288916,0.157107 C 8.5365511,25.958989 8.1560312,25.325212 8.5935972,24.111877 8.9780667,23.045775 8.968341,22.846777 8.5288804,22.787669 8.094518,22.729252 7.9204876,22.443065 8.0826508,22.053874 8.2104849,21.747073 8.1932559,21.66031 7.9776075,21.524715 7.8203387,21.425831 7.7840648,21.362045 7.769214,21.158262 7.7535354,20.943154 7.7782301,20.88446 7.9619101,20.700271 8.2297559,20.431679 8.2467904,20.18881 8.0095432,20.021241 7.7709868,19.852752 7.6195258,19.818735 7.0407373,19.803649 6.6008294,19.792174 6.4664674,19.763252 6.1752851,19.617317 5.8097857,19.434131 5.5637776,19.145602 5.5637776,18.900112 c 0,-0.323246 0.9003714,-1.865118 2.0777077,-3.558039 0.5895949,-0.847793 0.6775955,-1.080382 0.663617,-1.753961 -0.00644,-0.31066 -0.041533,-0.832388 -0.07796,-1.159398 C 8.0818499,11.124583 8.1828582,9.8931667 8.4903864,9.2195744 L 8.6404762,8.8908084 8.4706634,8.3609983 C 7.9616736,6.772958 8.1515712,5.5906816 9.0790914,4.5730018 10.269179,3.2672331 12.587886,2.520254 15.978516,2.3503291 c 2.279592,-0.1142444 4.084761,0.1239299 5.77926,0.762516 3.444679,1.2981547 5.689477,4.0300396 6.433492,7.8294589 0.158722,0.810537 0.146412,2.351212 -0.02571,3.218737 -0.184,0.927351 -0.488447,1.815684 -0.954926,2.786349 -0.461211,0.959702 -0.604802,1.215539 -1.635148,2.913357 -1.394481,2.297848 -1.610274,3.018825 -1.249224,4.173737 0.378298,1.210084 1.930184,7.192861 1.930184,7.441179 0,0.05092 -1.558081,0.06825 -6.136649,0.06825 h -6.136652 z"
       id="path523" /></g></svg>
