<?xml version="1.0" encoding="UTF-8" standalone="no"?>
<!-- Created with Inkscape (http://www.inkscape.org/) -->

<svg
   width="512"
   height="512"
   viewBox="0 0 135.46667 135.46667"
   version="1.1"
   id="svg5"
   sodipodi:docname="heart.svg"
   inkscape:version="1.2.1 (9c6d41e410, 2022-07-14)"
   inkscape:export-filename="heart.png"
   inkscape:export-xdpi="96"
   inkscape:export-ydpi="96"
   xmlns:inkscape="http://www.inkscape.org/namespaces/inkscape"
   xmlns:sodipodi="http://sodipodi.sourceforge.net/DTD/sodipodi-0.dtd"
   xmlns="http://www.w3.org/2000/svg"
   xmlns:svg="http://www.w3.org/2000/svg">
  <sodipodi:namedview
     id="namedview7"
     pagecolor="#ffffff"
     bordercolor="#000000"
     borderopacity="0.25"
     inkscape:showpageshadow="2"
     inkscape:pageopacity="0.0"
     inkscape:pagecheckerboard="0"
     inkscape:deskcolor="#d1d1d1"
     inkscape:document-units="mm"
     showgrid="false"
     inkscape:zoom="0.74564394"
     inkscape:cx="389.59614"
     inkscape:cy="347.35077"
     inkscape:window-width="1920"
     inkscape:window-height="1017"
     inkscape:window-x="-8"
     inkscape:window-y="-8"
     inkscape:window-maximized="1"
     inkscape:current-layer="g1926" />
  <defs
     id="defs2" />
  <g
     inkscape:label="Layer 1"
     inkscape:groupmode="layer"
     id="layer1">
    <g
       id="g1926"
       transform="translate(0.05216733,-2.7432865)"
       style="stroke-width:4.23333333;stroke-dasharray:none"
       inkscape:export-filename="g1926.png"
       inkscape:export-xdpi="96"
       inkscape:export-ydpi="96">
      <path
         id="circle401"
         style="fill:#ff0000;stroke:#000000;stroke-width:4.23333333;stroke-linecap:round;stroke-linejoin:round;stroke-dasharray:none"
         d="M 67.68117,129.71535 13.998933,76.033112 c -14.82394138,-14.82394 -14.82394138,-38.858293 0,-53.682232 14.823939,-14.8239398 38.858298,-14.8239398 53.682237,0 14.82394,-14.8239398 38.85829,-14.8239398 53.68223,0 14.82394,14.823939 14.82394,38.858292 0,53.682232 z"
         sodipodi:nodetypes="ccscscc" />
      <path
         style="color:#000000;fill:#ff8080;stroke-width:4.23333333;stroke-linecap:round;stroke-linejoin:round;stroke-dasharray:none"
         d="m 57.024641,38.007446 c -1.011548,0.01761 -1.886495,0.709284 -2.137104,1.689455 L 45.379169,76.863267 H 8.2675178 c -1.240848,-3.05e-4 -2.246831,1.005676 -2.2465287,2.246524 6.117e-4,1.240202 1.006327,2.245174 2.2465287,2.244869 H 47.123337 c 1.025784,-3.99e-4 1.920982,-0.695676 2.175236,-1.689451 l 7.913416,-30.932456 15.468719,52.696417 c 0.60865,2.06872 3.499353,2.17453 4.257622,0.15585 l 7.585144,-20.23036 h 41.713256 c 1.23955,-6.11e-4 2.24426,-1.005315 2.24487,-2.244869 3e-4,-1.2402 -1.00467,-2.245913 -2.24487,-2.246524 H 82.968314 c -0.936553,-3.45e-4 -1.775031,0.580441 -2.103948,1.457336 L 75.094689,93.70808 59.218114,39.620635 c -0.284778,-0.9701 -1.182584,-1.630391 -2.193473,-1.613189 z"
         id="path1169"
         sodipodi:nodetypes="cccccccccccccccccccc" />
    </g>
  </g>
</svg>
