<?xml version="1.0" encoding="UTF-8" standalone="no"?>
<!-- Created with Inkscape (http://www.inkscape.org/) -->

<svg
   version="1.1"
   id="svg3071"
   width="512"
   height="512"
   viewBox="0 0 512.00001 512.00001"
   sodipodi:docname="phoenix.svg"
   inkscape:version="1.2.1 (9c6d41e410, 2022-07-14)"
   inkscape:export-filename="phoenix.png"
   inkscape:export-xdpi="96"
   inkscape:export-ydpi="96"
   xmlns:inkscape="http://www.inkscape.org/namespaces/inkscape"
   xmlns:sodipodi="http://sodipodi.sourceforge.net/DTD/sodipodi-0.dtd"
   xmlns:xlink="http://www.w3.org/1999/xlink"
   xmlns="http://www.w3.org/2000/svg"
   xmlns:svg="http://www.w3.org/2000/svg">
  <defs
     id="defs3075">
    <linearGradient
       inkscape:collect="always"
       id="linearGradient5773">
      <stop
         style="stop-color:#ff1111;stop-opacity:1;"
         offset="0"
         id="stop5769" />
      <stop
         style="stop-color:#ffaf01;stop-opacity:1;"
         offset="1"
         id="stop5771" />
    </linearGradient>
    <linearGradient
       inkscape:collect="always"
       xlink:href="#linearGradient5773"
       id="linearGradient5775"
       x1="12.093316"
       y1="256.0367"
       x2="498.10354"
       y2="256.0367"
       gradientUnits="userSpaceOnUse" />
  </defs>
  <sodipodi:namedview
     id="namedview3073"
     pagecolor="#ffffff"
     bordercolor="#000000"
     borderopacity="0.25"
     inkscape:showpageshadow="2"
     inkscape:pageopacity="0.0"
     inkscape:pagecheckerboard="0"
     inkscape:deskcolor="#d1d1d1"
     showgrid="false"
     inkscape:zoom="0.78468753"
     inkscape:cx="284.82675"
     inkscape:cy="414.1776"
     inkscape:window-width="1920"
     inkscape:window-height="1017"
     inkscape:window-x="-8"
     inkscape:window-y="-8"
     inkscape:window-maximized="1"
     inkscape:current-layer="g3077" />
  <g
     inkscape:groupmode="layer"
     inkscape:label="Image"
     id="g3077">
    <path
       style="fill:url(#linearGradient5775);stroke:#000000;stroke-width:8;stroke-dasharray:none;stroke-linecap:round;stroke-linejoin:round;fill-opacity:1"
       d="m 244.28265,489.95517 c -5.10627,-1.5304 -14.43919,-7.06365 -20.7398,-12.29607 l -11.45569,-9.51352 c 12.12426,-8.65465 27.63722,-33.61722 34.62572,-43.03128 -23.96586,21.26659 -46.14495,41.72213 -83.15129,27.61111 l -8.438,-3.46242 12.65699,-3.08111 c 21.6321,-5.26596 39.85019,-14.30715 52.29754,-25.95395 30.55306,-28.58803 20.15146,-56.35189 -27.36414,-73.04028 -37.27278,-13.0909 -88.89133,-40.5734 -102.174584,-54.39929 -9.87221,-10.27553 -35.26536,-50.42933 -35.26536,-55.76457 0,-0.79559 3.480672,1.60528 7.734824,5.33524 9.095657,7.97492 24.016788,16.86428 35.861468,21.36464 7.264082,2.76001 6.677132,1.85113 -4.218993,-6.53282 -6.961353,-5.35636 -22.893781,-19.27787 -35.405394,-30.93667 -17.912563,-16.69163 -24.042764,-24.44013 -28.8373,-36.4501 -7.217717,-18.07985 -14.59523,-55.52384 -14.306398,-72.61101 l 0.205529,-12.15786 5.319567,14.01426 c 5.487606,14.45696 16.553432,33.12883 18.53481,31.27462 0.617317,-0.5777 -1.02367,-5.67396 -3.646649,-11.32502 -3.091921,-6.66134 -4.835885,-17.67981 -4.959084,-31.33172 -0.166228,-18.420109 0.91533,-23.199637 8.636559,-38.165969 4.854623,-9.409884 12.7138,-21.254494 17.464843,-26.321352 l 8.638254,-9.212475 0.114314,13.38002 c 0.06286,7.359014 0.881011,14.097515 1.818092,14.974446 0.937079,0.876936 5.719979,-3.333195 10.628667,-9.355847 C 98.042698,29.4267 124.23741,17.948974 154.11425,19.990781 l 11.94149,0.816097 -11.09142,6.895975 c -39.21405,24.380903 -62.897172,67.9779 -59.683732,109.868647 2.58582,33.7089 19.883242,51.82244 82.329692,86.21422 20.72479,11.41396 37.74985,22.07352 37.83347,23.68786 0.0835,1.61437 -2.69577,6.33509 -6.17644,10.49049 l -6.32849,7.55528 10.30316,-7.33833 c 12.64484,-9.00614 14.11284,-12.35635 12.18018,-27.79688 -1.11886,-8.93876 0.29539,-17.05589 5.33005,-30.59207 3.76916,-10.13372 6.45867,-18.79884 5.97667,-19.25585 -2.08969,-1.98136 -16.15262,18.5022 -22.4555,32.70792 -7.2896,16.42959 -7.95276,16.40261 -7.1617,-0.29138 0.61605,-13.00102 9.22376,-31.89719 18.78727,-41.24299 l 7.18887,-7.02522 -10.12143,-6.13545 c -9.1898,-5.57071 -20.93871,-21.95298 -17.83028,-24.8619 0.69943,-0.65452 5.7438,2.99505 11.20975,8.11017 10.70015,10.01337 20.96718,12.74643 17.63346,4.69398 -1.04884,-2.53344 -2.59196,-10.52855 -3.42914,-17.76692 l -1.52215,-13.16068 8.96062,9.87311 c 10.98494,12.10359 28.71115,22.02733 43.70477,24.46738 6.18785,1.007 14.41489,4.45806 18.2823,7.669 3.86742,3.21094 11.14777,8.47993 16.17854,11.70887 5.03077,3.22892 10.51846,8.26911 12.19484,11.2004 2.83529,4.95778 2.29524,5.28663 -7.74055,4.71331 -18.75774,-1.07157 -23.52331,-0.047 -30.60498,6.58021 -9.55699,8.94358 -9.05751,21.92661 1.55993,40.5493 8.39304,14.72115 25.9082,36.72498 19.81156,24.88874 -7.35543,-14.28012 -4.78693,-17.602 28.39353,-36.72192 55.79666,-32.15228 72.41383,-50.54962 74.897,-82.92065 3.28439,-42.815537 -22.79276,-89.098823 -63.04915,-111.903378 l -10.85708,-6.150339 14.62804,-0.01343 c 34.18641,-0.03151 56.49775,9.899821 76.00208,33.830397 10.58251,12.984068 13.26716,10.873272 11.56992,-9.096836 l -1.03466,-12.174381 9.55058,10.164515 c 5.25286,5.590418 13.50026,17.863444 18.32757,27.273327 7.65954,14.930668 8.75279,19.789757 8.58696,38.165965 -0.12319,13.65191 -1.86715,24.67038 -4.95909,31.33172 -2.62299,5.65106 -4.26397,10.74732 -3.64662,11.32502 1.91882,1.79568 12.9455,-16.57957 18.76742,-31.27461 l 5.55215,-14.01426 -1.58372,23.07247 c -1.87992,27.38735 -10.34612,59.68052 -19.48332,74.31654 -6.44328,10.32086 -36.87633,39.155 -59.14807,56.0405 -10.29753,7.80718 -10.53582,8.25543 -2.81265,5.29135 11.91482,-4.57278 26.80733,-13.4585 35.86146,-21.39704 4.25414,-3.72997 7.73481,-6.13083 7.73481,-5.33524 0,3.87273 -23.40593,42.87727 -30.69634,51.15353 -10.89608,12.36954 -35.26616,23.25919 -81.8102,36.55657 -21.08089,6.02268 -40.47319,13.1681 -43.59628,16.06374 -4.65353,4.31467 -5.79139,9.4599 -6.58659,29.78356 -1.68977,43.1874 8.52788,53.93698 74.09052,77.94769 5.20443,1.906 5.03293,2.27846 -2.2926,4.97826 -35.9475,15.14409 -56.81998,-7.15779 -80.79665,-26.94687 3.86848,16.7545 10.52545,29.23283 34.43624,40.80389 l -6.61279,6.72354 c -15.40077,15.65859 -44.25714,22.5414 -66.52488,15.86747 z"
       id="path3198"
       sodipodi:nodetypes="ssccccssssssssssscssssssccssscssscscssssssscssssscsssssscssssscsssccssssscssssssssssscccss" />
  </g>
</svg>
