<?xml version="1.0" encoding="UTF-8" standalone="no"?>
<!-- Created with Inkscape (http://www.inkscape.org/) -->

<svg
   width="128"
   height="128"
   viewBox="0 0 33.866666 33.866666"
   version="1.1"
   id="svg5"
   inkscape:version="1.2.2 (b0a84865, 2022-12-01)"
   sodipodi:docname="worker.svg"
   inkscape:export-filename="worker_darkmode.png"
   inkscape:export-xdpi="96"
   inkscape:export-ydpi="96"
   xmlns:inkscape="http://www.inkscape.org/namespaces/inkscape"
   xmlns:sodipodi="http://sodipodi.sourceforge.net/DTD/sodipodi-0.dtd"
   xmlns="http://www.w3.org/2000/svg"
   xmlns:svg="http://www.w3.org/2000/svg">
  <sodipodi:namedview
     id="namedview7"
     pagecolor="#ffffff"
     bordercolor="#000000"
     borderopacity="0.25"
     inkscape:showpageshadow="2"
     inkscape:pageopacity="0.0"
     inkscape:pagecheckerboard="0"
     inkscape:deskcolor="#d1d1d1"
     inkscape:document-units="mm"
     showgrid="false"
     inkscape:zoom="0.74564394"
     inkscape:cx="118.68936"
     inkscape:cy="126.06553"
     inkscape:window-width="1309"
     inkscape:window-height="430"
     inkscape:window-x="0"
     inkscape:window-y="38"
     inkscape:window-maximized="0"
     inkscape:current-layer="layer1" />
  <defs
     id="defs2" />
  <g
     inkscape:label="Layer 1"
     inkscape:groupmode="layer"
     id="layer1">
    <path
       id="path292"
       style="fill:none;stroke:#000000;stroke-width:0.52916667;stroke-linecap:round;stroke-linejoin:round;stroke-dasharray:none"
       d="M 3.4864758,32.649212 H 30.380191 c 0,-9.675479 -3.290059,-17.995479 -8.005547,-21.677772 0.530228,-0.946344 0.83391,-2.0368155 0.83391,-3.1987258 0,-3.6203934 -2.935029,-6.5552596 -6.555422,-6.5552596 -3.620393,-3e-7 -6.555259,2.9348662 -6.555259,6.5552596 0,1.2894052 0.373758,2.4908218 1.016686,3.5047108 -4.5127919,3.823718 -7.6280832,11.956432 -7.6280832,21.371787 z"
       sodipodi:nodetypes="cccssscc" />
    <path
       id="path292-6"
       style="fill:none;stroke:#ffffff;stroke-width:0.529167;stroke-linecap:round;stroke-linejoin:round;stroke-dasharray:none;stroke-opacity:1"
       d="m 52.553142,37.715879 h 26.893715 c 0,-9.675479 -3.290059,-17.995479 -8.005547,-21.677772 0.530228,-0.946344 0.83391,-2.036816 0.83391,-3.198726 0,-3.6203935 -2.935029,-6.5552597 -6.555422,-6.5552597 -3.620393,-3e-7 -6.555259,2.9348662 -6.555259,6.5552597 0,1.289405 0.373758,2.490822 1.016686,3.504711 -4.512792,3.823718 -7.628083,11.956432 -7.628083,21.371787 z"
       sodipodi:nodetypes="cccssscc"
       inkscape:export-filename="./path292-6.png"
       inkscape:export-xdpi="96"
       inkscape:export-ydpi="96" />
  </g>
</svg>
